<svg data-v-423bf9ae="" xmlns="http://www.w3.org/2000/svg" viewBox="0 0 167.76119831925575 60" class="font"><!----><!----><!----><g data-v-423bf9ae="" id="fe2158da-f165-4e80-85a1-b800d2100523" fill="black" transform="matrix(4.264392416587725,0,0,4.264392416587725,-1.23667206307735,-11.769723267532285)"><path d="M3.50 15.72Q3.99 15.72 4.30 15.84Q4.61 15.96 4.61 16.18L4.61 16.18Q4.61 16.37 4.38 16.60L4.38 16.60Q4.02 16.60 3.00 16.67L3.00 16.67Q2.27 16.73 1.96 16.73L1.96 16.73Q1.36 16.73 0.85 16.60L0.85 16.60Q0.83 16.58 0.76 16.49Q0.69 16.41 0.62 16.28Q0.55 16.16 0.55 16.02L0.55 16.02Q0.77 15.79 0.88 15.76Q0.99 15.72 1.43 15.72L1.43 15.72Q1.60 15.57 1.60 15.16L1.60 15.16Q1.60 15.01 1.57 14.70L1.57 14.70Q1.54 14.42 1.54 14.31L1.54 14.31L1.54 13.87Q1.54 12.56 1.58 11.45L1.58 11.45Q1.61 10.14 1.61 9.51L1.61 9.51Q1.61 9.14 1.62 8.95L1.62 8.95L1.64 8.12Q1.64 7.56 1.61 7.25L1.61 7.25Q1.58 6.89 1.58 6.78L1.58 6.78L1.58 6.72Q1.58 6.43 1.60 6.24L1.60 6.24Q1.62 5.61 1.61 5.03L1.61 5.03L1.62 4.58Q1.62 4.38 1.58 4.26Q1.54 4.14 1.41 4.10L1.41 4.10Q1.26 4.03 1.04 4.03L1.04 4.03Q0.88 4.02 0.79 3.99Q0.70 3.96 0.57 3.85L0.57 3.85Q0.29 3.70 0.29 3.54L0.29 3.54Q0.29 3.44 0.38 3.35Q0.46 3.25 0.58 3.14Q0.70 3.04 0.77 2.98L0.77 2.98Q1.85 2.79 3.44 2.79L3.44 2.79L4.96 2.80Q5.07 2.80 5.15 2.79Q5.22 2.77 5.28 2.77L5.28 2.77Q5.42 2.77 5.56 2.80L5.56 2.80Q6.37 2.93 7.01 3.88Q7.66 4.84 7.90 6.03L7.90 6.03Q7.90 6.92 7.85 7.45Q7.80 7.98 7.60 8.39L7.60 8.39Q7.45 8.85 7.12 9.23Q6.79 9.60 6.26 10.05L6.26 10.05Q5.84 10.43 5.84 10.43L5.84 10.43Q5.43 10.64 5.02 10.69Q4.61 10.74 3.79 10.74L3.79 10.74Q3.77 10.74 3.70 10.75Q3.64 10.77 3.57 10.84Q3.50 10.91 3.50 11.03L3.50 11.03Q3.49 11.16 3.49 11.44Q3.50 11.72 3.50 11.87L3.50 11.87L3.50 12.19Q3.50 12.71 3.43 13.37L3.43 13.37Q3.42 13.52 3.39 13.89Q3.36 14.25 3.36 14.55L3.36 14.55Q3.36 15.16 3.50 15.72L3.50 15.72ZM3.50 8.09L3.50 9.55Q3.63 9.69 3.82 9.76Q4.02 9.83 4.23 9.83L4.23 9.83Q4.47 9.83 4.63 9.73L4.63 9.73Q5.05 9.46 5.39 9.01Q5.73 8.55 5.84 8.09L5.84 8.09Q5.87 7.95 5.94 7.67Q6.02 7.38 6.03 7.09Q6.05 6.80 6.05 6.38L6.05 6.38Q6.05 5.74 5.91 5.09Q5.77 4.44 5.56 3.99L5.56 3.99Q5.45 3.99 5.32 3.94Q5.19 3.89 5.15 3.88L5.15 3.88Q4.76 3.68 4.38 3.68L4.38 3.68L3.50 3.68Q3.36 4.38 3.36 5.15L3.36 5.15Q3.36 5.53 3.39 5.99Q3.42 6.45 3.43 6.64L3.43 6.64Q3.50 7.45 3.50 8.09L3.50 8.09ZM15.16 15.46Q15.02 15.71 14.80 15.95Q14.57 16.18 14.38 16.31L14.38 16.31Q13.57 16.83 12.66 16.83L12.66 16.83Q11.75 16.83 10.97 16.34Q10.19 15.86 9.81 15.16L9.81 15.16Q9.30 14.18 8.95 13.15L8.95 13.15Q8.76 12.40 8.71 11.64Q8.67 10.88 8.67 9.73L8.67 9.73Q8.67 9.55 8.64 9.21L8.64 9.21Q8.61 8.85 8.61 8.67L8.61 8.67Q8.61 8.34 8.67 8.01L8.67 8.01Q8.68 7.92 8.75 7.55Q8.82 7.17 8.82 6.92L8.82 6.92Q8.85 6.78 8.92 6.38L8.92 6.38Q8.97 6.01 9.04 5.78Q9.10 5.56 9.24 5.43L9.24 5.43Q9.39 5.22 9.70 4.75L9.70 4.75Q10.12 4.10 10.42 3.74Q10.72 3.37 11.18 3.11Q11.63 2.84 12.25 2.84L12.25 2.84Q12.53 2.84 12.68 2.87L12.68 2.87Q13.52 2.87 14.02 3.12Q14.52 3.37 14.95 4.02L14.95 4.02Q15.61 4.45 16.06 5.36Q16.52 6.27 16.62 7.36L16.62 7.36Q16.67 7.94 16.67 8.88L16.67 8.88L16.67 9.49Q16.67 10.92 16.44 11.91L16.44 11.91Q16.02 13.90 15.16 15.46L15.16 15.46ZM13.92 15.26Q14.10 14.80 14.33 14.08Q14.56 13.37 14.67 12.88L14.67 12.88Q14.85 12.31 14.90 11.73Q14.95 11.16 14.95 10.30L14.95 10.30Q14.95 10.01 15.01 9.56L15.01 9.56Q15.01 9.48 15.03 9.26Q15.05 9.04 15.05 8.85L15.05 8.85Q15.05 8.65 15.04 8.39Q15.02 8.13 15.01 7.99L15.01 7.99Q14.95 7.43 14.95 7.15L14.95 7.15Q14.81 6.87 14.67 6.31L14.67 6.31Q14.53 5.73 14.38 5.43L14.38 5.43L14.22 5.10Q13.97 4.55 13.78 4.24Q13.58 3.93 13.27 3.78L13.27 3.78Q12.99 3.78 12.71 3.75L12.71 3.75Q12.40 3.72 12.11 3.72L12.11 3.72Q11.69 4.14 11.44 4.60Q11.19 5.05 10.96 5.71L10.96 5.71Q10.77 6.09 10.72 6.48Q10.67 6.86 10.67 7.43L10.67 7.43Q10.56 8.33 10.56 9.42L10.56 9.42Q10.56 11.40 10.96 13.72L10.96 13.72Q11.06 13.92 11.12 14.14Q11.19 14.36 11.21 14.43L11.21 14.43Q11.30 14.73 11.36 14.89Q11.42 15.05 11.54 15.16L11.54 15.16Q11.65 15.16 11.68 15.20Q11.72 15.25 11.75 15.39Q11.77 15.53 11.86 15.61L11.86 15.61Q12.08 15.83 12.59 15.83L12.59 15.83Q13.02 15.83 13.42 15.67Q13.82 15.51 13.92 15.26L13.92 15.26ZM21.77 3.37Q21.77 3.29 21.83 3.18Q21.88 3.07 22.08 3.07L22.08 3.07Q22.37 3.07 22.51 3.12Q22.65 3.16 22.65 3.37L22.65 3.37Q22.79 3.51 22.79 3.74L22.79 3.74Q22.79 3.91 22.71 4.21L22.71 4.21Q22.65 4.47 22.65 4.54L22.65 4.54Q22.61 4.63 22.45 5.01Q22.29 5.38 22.10 5.59Q21.91 5.80 21.70 5.80L21.70 5.80Q21.57 5.80 21.46 5.74L21.46 5.74Q21.34 5.61 21.34 5.36L21.34 5.36Q21.34 5.24 21.39 4.87L21.39 4.87Q21.46 4.38 21.46 4.26L21.46 4.26Q21.24 4.02 20.82 3.84Q20.40 3.65 19.98 3.65L19.98 3.65Q19.75 4.09 19.75 5.00L19.75 5.00Q19.75 5.91 19.98 6.36L19.98 6.36Q20.16 6.73 20.49 7.02Q20.82 7.31 21.39 7.70L21.39 7.70Q22.02 8.13 22.41 8.48Q22.81 8.82 23.09 9.31L23.09 9.31Q23.44 9.91 23.66 10.37L23.66 10.37Q23.88 10.81 24.00 11.33Q24.11 11.84 24.11 12.33L24.11 12.33Q24.11 13.17 23.97 13.76Q23.84 14.34 23.55 14.99L23.55 14.99Q23.21 15.72 22.65 16.14Q22.09 16.55 21.18 16.77L21.18 16.77L19.98 16.77Q19.60 16.77 19.07 16.37Q18.55 15.96 18.20 15.58L18.20 15.58Q17.77 14.77 17.77 13.87L17.77 13.87Q17.77 13.44 17.89 12.91L17.89 12.91Q17.74 12.91 17.58 13.06L17.58 13.06Q17.46 13.22 17.30 13.22L17.30 13.22Q17.09 13.01 17.04 12.80Q17.00 12.60 17.00 12.32L17.00 12.32Q17.47 12.15 18.10 12.05L18.10 12.05Q18.41 12.00 18.75 11.91Q19.08 11.83 19.39 11.70L19.39 11.70Q19.71 11.70 19.91 11.91Q20.10 12.12 20.10 12.43L20.10 12.43Q20.10 12.67 19.98 12.91L19.98 12.91Q19.68 12.91 19.49 12.96Q19.29 13.01 19.08 13.22L19.08 13.22Q18.77 13.52 18.77 14.17L18.77 14.17Q18.77 14.73 19.02 15.24Q19.26 15.75 19.67 15.89L19.67 15.89Q19.85 15.89 19.98 15.74L19.98 15.74Q19.99 15.72 20.08 15.65Q20.16 15.58 20.29 15.58L20.29 15.58Q21.27 15.09 21.78 14.05Q22.29 13.01 22.29 11.68L22.29 11.68Q22.29 10.81 22.08 9.93L22.08 9.93Q21.84 9.48 21.58 9.22Q21.32 8.96 20.87 8.72L20.87 8.72Q20.47 8.53 20.22 8.32Q19.96 8.12 19.67 7.83L19.67 7.83Q19.53 7.69 19.29 7.55L19.29 7.55Q18.93 7.34 18.68 7.07L18.68 7.07Q18.59 6.97 18.27 6.65Q17.95 6.33 17.77 6.03Q17.58 5.73 17.58 5.46L17.58 5.46Q17.51 5.25 17.51 4.97L17.51 4.97Q17.51 4.03 18.48 3.07L18.48 3.07Q18.59 3.07 18.72 3.02Q18.84 2.97 18.89 2.95L18.89 2.95Q19.28 2.76 19.67 2.76L19.67 2.76Q19.94 2.76 20.12 2.79Q20.30 2.83 20.57 2.91L20.57 2.91L21.18 3.07Q21.21 3.09 21.29 3.16Q21.38 3.23 21.50 3.30Q21.63 3.37 21.77 3.37L21.77 3.37ZM31.46 5.45Q31.39 5.38 31.33 5.18L31.33 5.18Q31.32 5.07 31.32 4.83L31.32 4.83Q31.32 4.56 31.29 4.37Q31.26 4.17 31.16 3.98L31.16 3.98Q31.04 3.85 30.72 3.85L30.72 3.85Q30.44 3.85 30.06 3.92L30.06 3.92Q29.61 3.98 29.43 3.98L29.43 3.98Q29.30 4.23 29.30 4.65L29.30 4.65Q29.30 4.98 29.37 5.40L29.37 5.40Q29.43 5.85 29.43 6.03L29.43 6.03L29.43 11.55L29.43 13.90L29.43 14.49Q29.43 14.80 29.39 15.06L29.39 15.06Q29.36 15.37 29.36 15.53L29.36 15.53Q29.36 15.79 29.43 15.95L29.43 15.95Q29.46 16.02 29.54 16.04Q29.62 16.07 29.69 16.09Q29.75 16.10 29.78 16.10L29.78 16.10Q30.02 16.13 30.16 16.21Q30.30 16.28 30.30 16.52L30.30 16.52Q30.27 16.55 30.18 16.62Q30.10 16.69 29.97 16.75Q29.83 16.81 29.71 16.81L29.71 16.81L27.08 16.81Q26.88 16.81 26.83 16.67Q26.78 16.52 26.78 16.23L26.78 16.23Q26.94 16.23 27.22 16.09L27.22 16.09Q27.50 15.95 27.65 15.95L27.65 15.95L27.66 13.50Q27.66 12.74 27.65 12.43L27.65 12.43Q27.64 12.03 27.64 11.26L27.64 11.26L27.65 8.95L27.65 7.49L27.65 6.90Q27.65 5.81 27.60 5.19Q27.55 4.58 27.36 3.98L27.36 3.98Q27.02 3.88 26.63 3.88L26.63 3.88L26.56 3.88Q25.87 3.88 25.43 4.18Q24.99 4.48 24.99 5.10L24.99 5.10Q24.99 5.25 25.03 5.45L25.03 5.45Q25.02 5.47 24.93 5.52Q24.84 5.57 24.74 5.57L24.74 5.57Q24.58 5.57 24.46 5.45L24.46 5.45Q24.46 5.28 24.40 4.83L24.40 4.83Q24.33 4.20 24.33 4.06L24.33 4.06Q24.33 3.64 24.46 3.39L24.46 3.39Q24.95 3.14 25.40 3.01Q25.84 2.88 26.45 2.88L26.45 2.88Q26.88 2.88 27.89 2.86L27.89 2.86Q28.69 2.81 29.43 2.81L29.43 2.81Q30.46 2.81 31.16 2.91Q31.85 3.01 32.03 3.39L32.03 3.39Q32.21 3.91 32.21 4.40L32.21 4.40Q32.21 4.86 32.03 5.15Q31.85 5.45 31.46 5.45L31.46 5.45ZM37.30 3.37Q37.30 3.29 37.35 3.18Q37.41 3.07 37.60 3.07L37.60 3.07Q37.90 3.07 38.04 3.12Q38.18 3.16 38.18 3.37L38.18 3.37Q38.32 3.51 38.32 3.74L38.32 3.74Q38.32 3.91 38.23 4.21L38.23 4.21Q38.18 4.47 38.18 4.54L38.18 4.54Q38.14 4.63 37.98 5.01Q37.81 5.38 37.63 5.59Q37.44 5.80 37.23 5.80L37.23 5.80Q37.10 5.80 36.99 5.74L36.99 5.74Q36.86 5.61 36.86 5.36L36.86 5.36Q36.86 5.24 36.92 4.87L36.92 4.87Q36.99 4.38 36.99 4.26L36.99 4.26Q36.76 4.02 36.34 3.84Q35.92 3.65 35.50 3.65L35.50 3.65Q35.28 4.09 35.28 5.00L35.28 5.00Q35.28 5.91 35.50 6.36L35.50 6.36Q35.69 6.73 36.02 7.02Q36.34 7.31 36.92 7.70L36.92 7.70Q37.55 8.13 37.94 8.48Q38.33 8.82 38.61 9.31L38.61 9.31Q38.96 9.91 39.19 10.37L39.19 10.37Q39.41 10.81 39.52 11.33Q39.63 11.84 39.63 12.33L39.63 12.33Q39.63 13.17 39.50 13.76Q39.37 14.34 39.07 14.99L39.07 14.99Q38.74 15.72 38.18 16.14Q37.62 16.55 36.71 16.77L36.71 16.77L35.50 16.77Q35.13 16.77 34.60 16.37Q34.08 15.96 33.73 15.58L33.73 15.58Q33.29 14.77 33.29 13.87L33.29 13.87Q33.29 13.44 33.42 12.91L33.42 12.91Q33.26 12.91 33.11 13.06L33.11 13.06Q32.98 13.22 32.83 13.22L32.83 13.22Q32.62 13.01 32.57 12.80Q32.52 12.60 32.52 12.32L32.52 12.32Q33.00 12.15 33.63 12.05L33.63 12.05Q33.94 12.00 34.27 11.91Q34.61 11.83 34.92 11.70L34.92 11.70Q35.24 11.70 35.43 11.91Q35.63 12.12 35.63 12.43L35.63 12.43Q35.63 12.67 35.50 12.91L35.50 12.91Q35.21 12.91 35.01 12.96Q34.82 13.01 34.61 13.22L34.61 13.22Q34.30 13.52 34.30 14.17L34.30 14.17Q34.30 14.73 34.55 15.24Q34.79 15.75 35.20 15.89L35.20 15.89Q35.38 15.89 35.50 15.74L35.50 15.74Q35.52 15.72 35.60 15.65Q35.69 15.58 35.81 15.58L35.81 15.58Q36.79 15.09 37.30 14.05Q37.81 13.01 37.81 11.68L37.81 11.68Q37.81 10.81 37.60 9.93L37.60 9.93Q37.37 9.48 37.11 9.22Q36.85 8.96 36.40 8.72L36.40 8.72Q35.99 8.53 35.74 8.32Q35.49 8.12 35.20 7.83L35.20 7.83Q35.06 7.69 34.82 7.55L34.82 7.55Q34.45 7.34 34.20 7.07L34.20 7.07Q34.12 6.97 33.80 6.65Q33.47 6.33 33.29 6.03Q33.11 5.73 33.11 5.46L33.11 5.46Q33.04 5.25 33.04 4.97L33.04 4.97Q33.04 4.03 34.01 3.07L34.01 3.07Q34.12 3.07 34.24 3.02Q34.37 2.97 34.41 2.95L34.41 2.95Q34.80 2.76 35.20 2.76L35.20 2.76Q35.46 2.76 35.64 2.79Q35.83 2.83 36.09 2.91L36.09 2.91L36.71 3.07Q36.74 3.09 36.82 3.16Q36.90 3.23 37.03 3.30Q37.16 3.37 37.30 3.37L37.30 3.37Z"></path></g><!----><!----></svg>